<svg width="573" height="39" viewBox="0 0 573 39" fill="none" xmlns="http://www.w3.org/2000/svg">
<path d="M9.432 7.796L8.28 14.312H16.74L16.056 18.2H7.596L6.408 25.004H15.948L15.228 29H0.612L5.076 3.836H19.656L18.972 7.796H9.432ZM32.3362 18.992L37.1962 29H31.5082L28.5202 22.844L23.7682 29H18.3682L26.6482 18.992L21.8242 9.056H27.5122L30.5002 15.212L35.2522 9.056H40.6522L32.3362 18.992ZM48.7536 11.936C49.5696 11.024 50.5896 10.268 51.8136 9.668C53.0616 9.044 54.4176 8.732 55.8816 8.732C57.3696 8.732 58.6776 9.056 59.8056 9.704C60.9576 10.328 61.8456 11.24 62.4696 12.44C63.0936 13.64 63.4056 15.044 63.4056 16.652C63.4056 17.396 63.3336 18.164 63.1896 18.956C62.8296 20.996 62.1096 22.808 61.0296 24.392C59.9496 25.952 58.6416 27.164 57.1056 28.028C55.5696 28.892 53.9616 29.324 52.2816 29.324C50.8176 29.324 49.5696 29.024 48.5376 28.424C47.5296 27.824 46.7616 27.068 46.2336 26.156L44.0736 38.504H38.9976L44.1816 9.056H49.2576L48.7536 11.936ZM58.0416 18.956C58.1136 18.476 58.1496 18.044 58.1496 17.66C58.1496 16.244 57.7416 15.14 56.9256 14.348C56.1096 13.556 55.0656 13.16 53.7936 13.16C52.8816 13.16 51.9816 13.4 51.0936 13.88C50.2056 14.336 49.4376 15.008 48.7896 15.896C48.1416 16.784 47.7096 17.828 47.4936 19.028C47.3976 19.652 47.3496 20.108 47.3496 20.396C47.3496 21.812 47.7576 22.916 48.5736 23.708C49.4136 24.5 50.4576 24.896 51.7056 24.896C52.6416 24.896 53.5536 24.656 54.4416 24.176C55.3296 23.696 56.0976 23.012 56.7456 22.124C57.3936 21.236 57.8256 20.18 58.0416 18.956ZM75.564 2.36L70.848 29H65.772L70.488 2.36H75.564ZM85.4395 29.324C83.7355 29.324 82.2235 28.976 80.9035 28.28C79.6075 27.584 78.5995 26.6 77.8795 25.328C77.1595 24.056 76.7995 22.592 76.7995 20.936C76.7995 18.68 77.3275 16.628 78.3835 14.78C79.4635 12.908 80.9275 11.432 82.7755 10.352C84.6475 9.272 86.7235 8.732 89.0035 8.732C90.7075 8.732 92.2195 9.092 93.5395 9.812C94.8835 10.508 95.9155 11.492 96.6355 12.764C97.3795 14.036 97.7515 15.5 97.7515 17.156C97.7515 19.436 97.2115 21.5 96.1315 23.348C95.0515 25.196 93.5635 26.66 91.6675 27.74C89.7955 28.796 87.7195 29.324 85.4395 29.324ZM86.1235 25.004C87.3235 25.004 88.4155 24.656 89.3995 23.96C90.3835 23.264 91.1515 22.34 91.7035 21.188C92.2555 20.036 92.5315 18.824 92.5315 17.552C92.5315 16.112 92.1235 15.008 91.3075 14.24C90.5155 13.448 89.5075 13.052 88.2835 13.052C87.0595 13.052 85.9675 13.4 85.0075 14.096C84.0715 14.792 83.3395 15.728 82.8115 16.904C82.2835 18.056 82.0195 19.28 82.0195 20.576C82.0195 21.992 82.3915 23.084 83.1355 23.852C83.9035 24.62 84.8995 25.004 86.1235 25.004ZM108.181 12.584C109.045 11.384 110.053 10.448 111.205 9.776C112.357 9.104 113.605 8.768 114.949 8.768L114.013 14.06H112.681C111.193 14.06 109.993 14.384 109.081 15.032C108.193 15.68 107.545 16.784 107.137 18.344L105.265 29H100.189L103.717 9.056H108.793L108.181 12.584ZM127.775 8.732C130.319 8.732 132.335 9.44 133.823 10.856C135.311 12.248 136.055 14.132 136.055 16.508C136.055 17.276 135.995 17.96 135.875 18.56C135.731 19.28 135.575 19.904 135.407 20.432H120.827C120.803 20.6 120.791 20.84 120.791 21.152C120.791 22.4 121.151 23.384 121.871 24.104C122.615 24.8 123.587 25.148 124.787 25.148C125.795 25.148 126.659 24.932 127.379 24.5C128.123 24.044 128.723 23.456 129.179 22.736H134.615C133.727 24.656 132.347 26.24 130.475 27.488C128.627 28.712 126.527 29.324 124.175 29.324C121.631 29.324 119.591 28.604 118.055 27.164C116.519 25.724 115.751 23.768 115.751 21.296C115.751 20.576 115.823 19.82 115.967 19.028C116.327 16.964 117.059 15.152 118.163 13.592C119.291 12.032 120.683 10.832 122.339 9.992C123.995 9.152 125.807 8.732 127.775 8.732ZM130.871 17.372C130.919 16.988 130.943 16.712 130.943 16.544C130.943 15.392 130.571 14.492 129.827 13.844C129.083 13.196 128.111 12.872 126.911 12.872C125.639 12.872 124.499 13.28 123.491 14.096C122.483 14.888 121.775 15.98 121.367 17.372H130.871ZM155.631 9.056L158.295 22.988L166.035 9.056H171.399L153.867 38.432H148.503L154.551 28.496L149.979 9.056H155.631ZM180.2 29.324C178.496 29.324 176.984 28.976 175.664 28.28C174.368 27.584 173.36 26.6 172.64 25.328C171.92 24.056 171.56 22.592 171.56 20.936C171.56 18.68 172.088 16.628 173.144 14.78C174.224 12.908 175.688 11.432 177.536 10.352C179.408 9.272 181.484 8.732 183.764 8.732C185.468 8.732 186.98 9.092 188.3 9.812C189.644 10.508 190.676 11.492 191.396 12.764C192.14 14.036 192.512 15.5 192.512 17.156C192.512 19.436 191.972 21.5 190.892 23.348C189.812 25.196 188.324 26.66 186.428 27.74C184.556 28.796 182.48 29.324 180.2 29.324ZM180.884 25.004C182.084 25.004 183.176 24.656 184.16 23.96C185.144 23.264 185.912 22.34 186.464 21.188C187.016 20.036 187.292 18.824 187.292 17.552C187.292 16.112 186.884 15.008 186.068 14.24C185.276 13.448 184.268 13.052 183.044 13.052C181.82 13.052 180.728 13.4 179.768 14.096C178.832 14.792 178.1 15.728 177.572 16.904C177.044 18.056 176.78 19.28 176.78 20.576C176.78 21.992 177.152 23.084 177.896 23.852C178.664 24.62 179.66 25.004 180.884 25.004ZM217.305 9.056L213.777 29H208.737L209.169 26.48C208.401 27.344 207.453 28.028 206.325 28.532C205.197 29.012 204.009 29.252 202.761 29.252C200.697 29.252 199.065 28.7 197.865 27.596C196.665 26.468 196.065 24.872 196.065 22.808C196.065 22.04 196.125 21.356 196.245 20.756L198.297 9.056H203.337L201.393 20.036C201.321 20.468 201.285 20.888 201.285 21.296C201.285 22.472 201.609 23.384 202.257 24.032C202.905 24.656 203.817 24.968 204.993 24.968C206.361 24.968 207.525 24.548 208.485 23.708C209.445 22.844 210.057 21.62 210.321 20.036L212.265 9.056H217.305ZM227.461 12.584C228.325 11.384 229.333 10.448 230.485 9.776C231.637 9.104 232.885 8.768 234.229 8.768L233.293 14.06H231.961C230.473 14.06 229.273 14.384 228.361 15.032C227.473 15.68 226.825 16.784 226.417 18.344L224.545 29H219.469L222.997 9.056H228.073L227.461 12.584ZM385.329 29.324C383.625 29.324 382.113 28.976 380.793 28.28C379.497 27.584 378.489 26.6 377.769 25.328C377.049 24.056 376.689 22.592 376.689 20.936C376.689 18.68 377.217 16.628 378.273 14.78C379.353 12.908 380.817 11.432 382.665 10.352C384.537 9.272 386.613 8.732 388.893 8.732C390.597 8.732 392.109 9.092 393.429 9.812C394.773 10.508 395.805 11.492 396.525 12.764C397.269 14.036 397.641 15.5 397.641 17.156C397.641 19.436 397.101 21.5 396.021 23.348C394.941 25.196 393.453 26.66 391.557 27.74C389.685 28.796 387.609 29.324 385.329 29.324ZM386.013 25.004C387.213 25.004 388.305 24.656 389.289 23.96C390.273 23.264 391.041 22.34 391.593 21.188C392.145 20.036 392.421 18.824 392.421 17.552C392.421 16.112 392.013 15.008 391.197 14.24C390.405 13.448 389.397 13.052 388.173 13.052C386.949 13.052 385.857 13.4 384.897 14.096C383.961 14.792 383.229 15.728 382.701 16.904C382.173 18.056 381.909 19.28 381.909 20.576C381.909 21.992 382.281 23.084 383.025 23.852C383.793 24.62 384.789 25.004 386.013 25.004ZM408.07 12.584C408.934 11.384 409.942 10.448 411.094 9.776C412.246 9.104 413.494 8.768 414.838 8.768L413.902 14.06H412.57C411.082 14.06 409.882 14.384 408.97 15.032C408.082 15.68 407.434 16.784 407.026 18.344L405.154 29H400.078L403.606 9.056H408.682L408.07 12.584Z" fill="black"/>
<path d="M259.929 8.768C261.897 8.768 263.457 9.332 264.609 10.46C265.785 11.588 266.373 13.172 266.373 15.212C266.373 15.98 266.313 16.676 266.193 17.3L264.105 29H259.101L261.045 17.984C261.117 17.552 261.153 17.132 261.153 16.724C261.153 15.524 260.829 14.612 260.181 13.988C259.557 13.364 258.657 13.052 257.481 13.052C256.137 13.052 254.997 13.46 254.061 14.276C253.125 15.068 252.501 16.208 252.189 17.696L250.173 29H245.097L249.813 2.36H254.889L253.269 11.504C254.085 10.664 255.069 10.004 256.221 9.524C257.397 9.02 258.633 8.768 259.929 8.768ZM278.546 29.324C276.842 29.324 275.33 28.976 274.01 28.28C272.714 27.584 271.706 26.6 270.986 25.328C270.266 24.056 269.906 22.592 269.906 20.936C269.906 18.68 270.434 16.628 271.49 14.78C272.57 12.908 274.034 11.432 275.882 10.352C277.754 9.272 279.83 8.732 282.11 8.732C283.814 8.732 285.326 9.092 286.646 9.812C287.99 10.508 289.022 11.492 289.742 12.764C290.486 14.036 290.858 15.5 290.858 17.156C290.858 19.436 290.318 21.5 289.238 23.348C288.158 25.196 286.67 26.66 284.774 27.74C282.902 28.796 280.826 29.324 278.546 29.324ZM279.23 25.004C280.43 25.004 281.522 24.656 282.506 23.96C283.49 23.264 284.258 22.34 284.81 21.188C285.362 20.036 285.638 18.824 285.638 17.552C285.638 16.112 285.23 15.008 284.414 14.24C283.622 13.448 282.614 13.052 281.39 13.052C280.166 13.052 279.074 13.4 278.114 14.096C277.178 14.792 276.446 15.728 275.918 16.904C275.39 18.056 275.126 19.28 275.126 20.576C275.126 21.992 275.498 23.084 276.242 23.852C277.01 24.62 278.006 25.004 279.23 25.004ZM301.395 11.972C302.187 11.012 303.207 10.232 304.455 9.632C305.703 9.032 307.059 8.732 308.523 8.732C310.011 8.732 311.319 9.056 312.447 9.704C313.599 10.328 314.487 11.24 315.111 12.44C315.735 13.64 316.047 15.044 316.047 16.652C316.047 17.396 315.975 18.164 315.831 18.956C315.471 20.996 314.751 22.808 313.671 24.392C312.591 25.952 311.283 27.164 309.747 28.028C308.211 28.892 306.603 29.324 304.923 29.324C303.435 29.324 302.175 29.036 301.143 28.46C300.111 27.86 299.355 27.092 298.875 26.156L298.371 29H293.295L298.011 2.36H303.087L301.395 11.972ZM310.683 18.956C310.755 18.476 310.791 18.044 310.791 17.66C310.791 16.244 310.383 15.14 309.567 14.348C308.751 13.556 307.707 13.16 306.435 13.16C305.523 13.16 304.623 13.4 303.735 13.88C302.847 14.336 302.079 15.008 301.431 15.896C300.783 16.784 300.351 17.828 300.135 19.028C300.039 19.652 299.991 20.108 299.991 20.396C299.991 21.812 300.399 22.916 301.215 23.708C302.055 24.5 303.099 24.896 304.347 24.896C305.283 24.896 306.195 24.656 307.083 24.176C307.971 23.696 308.739 23.012 309.387 22.124C310.035 21.236 310.467 20.18 310.683 18.956ZM326.513 11.972C327.305 11.012 328.325 10.232 329.573 9.632C330.821 9.032 332.177 8.732 333.641 8.732C335.129 8.732 336.437 9.056 337.565 9.704C338.717 10.328 339.605 11.24 340.229 12.44C340.853 13.64 341.165 15.044 341.165 16.652C341.165 17.396 341.093 18.164 340.949 18.956C340.589 20.996 339.869 22.808 338.789 24.392C337.709 25.952 336.401 27.164 334.865 28.028C333.329 28.892 331.721 29.324 330.041 29.324C328.553 29.324 327.293 29.036 326.261 28.46C325.229 27.86 324.473 27.092 323.993 26.156L323.489 29H318.413L323.129 2.36H328.205L326.513 11.972ZM335.801 18.956C335.873 18.476 335.909 18.044 335.909 17.66C335.909 16.244 335.501 15.14 334.685 14.348C333.869 13.556 332.825 13.16 331.553 13.16C330.641 13.16 329.741 13.4 328.853 13.88C327.965 14.336 327.197 15.008 326.549 15.896C325.901 16.784 325.469 17.828 325.253 19.028C325.157 19.652 325.109 20.108 325.109 20.396C325.109 21.812 325.517 22.916 326.333 23.708C327.173 24.5 328.217 24.896 329.465 24.896C330.401 24.896 331.313 24.656 332.201 24.176C333.089 23.696 333.857 23.012 334.505 22.124C335.153 21.236 335.585 20.18 335.801 18.956ZM350.408 9.056L353.072 22.988L360.812 9.056H366.176L348.644 38.432H343.28L349.328 28.496L344.756 9.056H350.408Z" fill="#0096C8"/>
<path d="M433.806 11.936C434.622 11.024 435.642 10.268 436.866 9.668C438.114 9.044 439.47 8.732 440.934 8.732C442.422 8.732 443.73 9.056 444.858 9.704C446.01 10.328 446.898 11.24 447.522 12.44C448.146 13.64 448.458 15.044 448.458 16.652C448.458 17.396 448.386 18.164 448.242 18.956C447.882 20.996 447.162 22.808 446.082 24.392C445.002 25.952 443.694 27.164 442.158 28.028C440.622 28.892 439.014 29.324 437.334 29.324C435.87 29.324 434.622 29.024 433.59 28.424C432.582 27.824 431.814 27.068 431.286 26.156L429.126 38.504H424.05L429.234 9.056H434.31L433.806 11.936ZM443.094 18.956C443.166 18.476 443.202 18.044 443.202 17.66C443.202 16.244 442.794 15.14 441.978 14.348C441.162 13.556 440.118 13.16 438.846 13.16C437.934 13.16 437.034 13.4 436.146 13.88C435.258 14.336 434.49 15.008 433.842 15.896C433.194 16.784 432.762 17.828 432.546 19.028C432.45 19.652 432.402 20.108 432.402 20.396C432.402 21.812 432.81 22.916 433.626 23.708C434.466 24.5 435.51 24.896 436.758 24.896C437.694 24.896 438.606 24.656 439.494 24.176C440.382 23.696 441.15 23.012 441.798 22.124C442.446 21.236 442.878 20.18 443.094 18.956ZM451.328 18.956C451.688 16.94 452.396 15.152 453.452 13.592C454.532 12.032 455.84 10.832 457.376 9.992C458.912 9.152 460.532 8.732 462.236 8.732C463.724 8.732 464.972 9.032 465.98 9.632C467.012 10.232 467.768 10.988 468.248 11.9L468.752 9.056H473.828L470.3 29H465.224L465.764 26.084C464.972 27.02 463.94 27.8 462.668 28.424C461.42 29.024 460.052 29.324 458.564 29.324C457.1 29.324 455.804 29 454.676 28.352C453.548 27.68 452.672 26.744 452.048 25.544C451.424 24.32 451.112 22.904 451.112 21.296C451.112 20.552 451.184 19.772 451.328 18.956ZM466.988 19.028C467.084 18.404 467.132 17.948 467.132 17.66C467.132 16.244 466.712 15.14 465.872 14.348C465.056 13.556 464.024 13.16 462.776 13.16C461.84 13.16 460.928 13.388 460.04 13.844C459.176 14.3 458.42 14.972 457.772 15.86C457.124 16.724 456.692 17.756 456.476 18.956C456.404 19.412 456.368 19.844 456.368 20.252C456.368 21.692 456.776 22.832 457.592 23.672C458.408 24.488 459.44 24.896 460.688 24.896C461.624 24.896 462.536 24.668 463.424 24.212C464.312 23.732 465.068 23.048 465.692 22.16C466.34 21.272 466.772 20.228 466.988 19.028ZM483.755 29.324C482.291 29.324 480.959 29.084 479.759 28.604C478.583 28.1 477.647 27.416 476.951 26.552C476.279 25.664 475.943 24.656 475.943 23.528C475.943 23.36 475.967 23.084 476.015 22.7H480.911C480.839 23.54 481.091 24.224 481.667 24.752C482.243 25.256 483.059 25.508 484.115 25.508C485.075 25.508 485.867 25.34 486.491 25.004C487.139 24.644 487.463 24.128 487.463 23.456C487.463 22.856 487.163 22.376 486.563 22.016C485.987 21.656 485.063 21.248 483.791 20.792C482.519 20.336 481.463 19.892 480.623 19.46C479.783 19.028 479.063 18.428 478.463 17.66C477.863 16.892 477.563 15.92 477.563 14.744C477.563 13.568 477.899 12.524 478.571 11.612C479.267 10.7 480.227 9.992 481.451 9.488C482.675 8.984 484.079 8.732 485.663 8.732C487.175 8.732 488.507 8.984 489.659 9.488C490.811 9.992 491.699 10.7 492.323 11.612C492.971 12.5 493.295 13.52 493.295 14.672C493.295 14.96 493.283 15.176 493.259 15.32H488.579C488.651 14.48 488.411 13.808 487.859 13.304C487.307 12.8 486.503 12.548 485.447 12.548C484.583 12.548 483.875 12.74 483.323 13.124C482.771 13.484 482.495 13.976 482.495 14.6C482.495 15.224 482.807 15.74 483.431 16.148C484.055 16.532 485.015 16.964 486.311 17.444C487.607 17.948 488.639 18.416 489.407 18.848C490.199 19.256 490.883 19.832 491.459 20.576C492.035 21.296 492.323 22.208 492.323 23.312C492.323 24.536 491.951 25.604 491.207 26.516C490.463 27.428 489.443 28.124 488.147 28.604C486.851 29.084 485.387 29.324 483.755 29.324ZM504.092 29.324C502.628 29.324 501.296 29.084 500.096 28.604C498.92 28.1 497.984 27.416 497.288 26.552C496.616 25.664 496.28 24.656 496.28 23.528C496.28 23.36 496.304 23.084 496.352 22.7H501.248C501.176 23.54 501.428 24.224 502.004 24.752C502.58 25.256 503.396 25.508 504.452 25.508C505.412 25.508 506.204 25.34 506.828 25.004C507.476 24.644 507.8 24.128 507.8 23.456C507.8 22.856 507.5 22.376 506.9 22.016C506.324 21.656 505.4 21.248 504.128 20.792C502.856 20.336 501.8 19.892 500.96 19.46C500.12 19.028 499.4 18.428 498.8 17.66C498.2 16.892 497.9 15.92 497.9 14.744C497.9 13.568 498.236 12.524 498.908 11.612C499.604 10.7 500.564 9.992 501.788 9.488C503.012 8.984 504.416 8.732 506 8.732C507.512 8.732 508.844 8.984 509.996 9.488C511.148 9.992 512.036 10.7 512.66 11.612C513.308 12.5 513.632 13.52 513.632 14.672C513.632 14.96 513.62 15.176 513.596 15.32H508.916C508.988 14.48 508.748 13.808 508.196 13.304C507.644 12.8 506.84 12.548 505.784 12.548C504.92 12.548 504.212 12.74 503.66 13.124C503.108 13.484 502.832 13.976 502.832 14.6C502.832 15.224 503.144 15.74 503.768 16.148C504.392 16.532 505.352 16.964 506.648 17.444C507.944 17.948 508.976 18.416 509.744 18.848C510.536 19.256 511.22 19.832 511.796 20.576C512.372 21.296 512.66 22.208 512.66 23.312C512.66 24.536 512.288 25.604 511.544 26.516C510.8 27.428 509.78 28.124 508.484 28.604C507.188 29.084 505.724 29.324 504.092 29.324ZM523.133 6.68C522.341 6.68 521.705 6.452 521.225 5.996C520.745 5.54 520.505 4.964 520.505 4.268C520.505 3.308 520.865 2.492 521.585 1.82C522.329 1.124 523.193 0.775999 524.177 0.775999C524.945 0.775999 525.569 1.004 526.049 1.46C526.529 1.916 526.769 2.492 526.769 3.188C526.769 4.148 526.409 4.976 525.689 5.672C524.969 6.344 524.117 6.68 523.133 6.68ZM525.221 9.056L521.693 29H516.617L520.145 9.056H525.221ZM536.285 29.324C534.581 29.324 533.069 28.976 531.749 28.28C530.453 27.584 529.445 26.6 528.725 25.328C528.005 24.056 527.645 22.592 527.645 20.936C527.645 18.68 528.173 16.628 529.229 14.78C530.309 12.908 531.773 11.432 533.621 10.352C535.493 9.272 537.569 8.732 539.849 8.732C541.553 8.732 543.065 9.092 544.385 9.812C545.729 10.508 546.761 11.492 547.481 12.764C548.225 14.036 548.597 15.5 548.597 17.156C548.597 19.436 548.057 21.5 546.977 23.348C545.897 25.196 544.409 26.66 542.513 27.74C540.641 28.796 538.565 29.324 536.285 29.324ZM536.969 25.004C538.169 25.004 539.261 24.656 540.245 23.96C541.229 23.264 541.997 22.34 542.549 21.188C543.101 20.036 543.377 18.824 543.377 17.552C543.377 16.112 542.969 15.008 542.153 14.24C541.361 13.448 540.353 13.052 539.129 13.052C537.905 13.052 536.813 13.4 535.853 14.096C534.917 14.792 534.185 15.728 533.657 16.904C533.129 18.056 532.865 19.28 532.865 20.576C532.865 21.992 533.237 23.084 533.981 23.852C534.749 24.62 535.745 25.004 536.969 25.004ZM565.65 8.768C567.714 8.768 569.334 9.332 570.51 10.46C571.71 11.564 572.31 13.148 572.31 15.212C572.31 15.98 572.25 16.676 572.13 17.3L570.042 29H565.038L566.982 17.984C567.054 17.552 567.09 17.132 567.09 16.724C567.09 15.524 566.766 14.612 566.118 13.988C565.494 13.364 564.594 13.052 563.418 13.052C562.074 13.052 560.922 13.46 559.962 14.276C559.026 15.068 558.402 16.22 558.09 17.732L556.11 29H551.034L554.562 9.056H559.638L559.206 11.504C560.022 10.664 560.994 10.004 562.122 9.524C563.25 9.02 564.426 8.768 565.65 8.768Z" fill="#8064A2"/>
</svg>
