<svg width="304" height="24" viewBox="0 0 304 24" fill="none" xmlns="http://www.w3.org/2000/svg">
<circle cx="52" cy="12" r="12" fill="#EBEDF0"/>
<path d="M49.0317 18.5008C55.0694 18.5008 58.3718 13.4986 58.3718 9.16066C58.3718 9.01859 58.3718 8.87716 58.3623 8.73634C59.0047 8.27163 59.5593 7.69628 60 7.03716C59.4009 7.30263 58.7653 7.47669 58.1146 7.55363C58.7997 7.1435 59.3128 6.49794 59.5577 5.73794C58.9134 6.12028 58.2084 6.38978 57.4733 6.53475C56.8526 5.87472 55.9857 5.5 55.0798 5.5C53.2772 5.5 51.794 6.98325 51.794 8.78575C51.794 9.03581 51.8225 9.28509 51.879 9.52866C49.241 9.39644 46.7797 8.14863 45.1136 6.09891C44.2472 7.59034 44.6955 9.52316 46.1299 10.481C45.6076 10.4655 45.0964 10.3246 44.64 10.0701V10.1117C44.6404 11.6684 45.7477 13.0214 47.2736 13.3296C46.7903 13.4614 46.2832 13.4807 45.7914 13.3859C46.2203 14.7198 47.4573 15.6393 48.8583 15.6656C47.6961 16.579 46.2596 17.0751 44.7814 17.0736C44.5203 17.0731 44.2593 17.0573 44 17.0262C45.5011 17.9895 47.2481 18.5006 49.0317 18.4983" fill="#6D747A"/>
<circle cx="12" cy="12" r="12" fill="#EBEDF0"/>
<path d="M15.4102 10.1355H13.2526V8.72044C13.2526 8.18901 13.6048 8.06512 13.8529 8.06512C14.1004 8.06512 15.3755 8.06512 15.3755 8.06512V5.72889L13.2786 5.7207C10.9508 5.7207 10.4211 7.46314 10.4211 8.5782V10.1355H9.07489V12.5428H10.4211C10.4211 15.6323 10.4211 19.3548 10.4211 19.3548H13.2526C13.2526 19.3548 13.2526 15.5956 13.2526 12.5428H15.1633L15.4102 10.1355Z" fill="#6D747A"/>
<circle cx="92" cy="12" r="12" fill="#EBEDF0"/>
<path d="M92 5.17188C90.146 5.17188 89.9135 5.17973 89.1854 5.21296C88.4588 5.24612 87.9625 5.36151 87.5282 5.53028C87.0793 5.70474 86.6986 5.93816 86.3191 6.31768C85.9396 6.69719 85.7062 7.0779 85.5317 7.52681C85.3629 7.96103 85.2476 8.45729 85.2144 9.1839C85.1812 9.91204 85.1733 10.1445 85.1733 11.9985C85.1733 13.8525 85.1812 14.085 85.2144 14.8131C85.2476 15.5398 85.3629 16.036 85.5317 16.4702C85.7062 16.9191 85.9396 17.2998 86.3191 17.6794C86.6986 18.0589 87.0793 18.2923 87.5282 18.4668C87.9625 18.6355 88.4588 18.7509 89.1854 18.7841C89.9135 18.8173 90.146 18.8252 92 18.8252C93.854 18.8252 94.0865 18.8173 94.8146 18.7841C95.5412 18.7509 96.0375 18.6355 96.4717 18.4668C96.9206 18.2923 97.3013 18.0589 97.6809 17.6794C98.0604 17.2998 98.2938 16.9191 98.4682 16.4702C98.637 16.036 98.7524 15.5398 98.7855 14.8131C98.8188 14.085 98.8266 13.8525 98.8266 11.9985C98.8266 10.1445 98.8188 9.91204 98.7855 9.1839C98.7524 8.45729 98.637 7.96103 98.4682 7.52681C98.2938 7.0779 98.0604 6.69719 97.6809 6.31768C97.3013 5.93816 96.9206 5.70474 96.4717 5.53028C96.0375 5.36151 95.5412 5.24612 94.8146 5.21296C94.0865 5.17973 93.854 5.17188 92 5.17188ZM92 6.40193C93.8228 6.40193 94.0387 6.40886 94.7585 6.44171C95.4241 6.47208 95.7856 6.5833 96.0261 6.67676C96.3448 6.8006 96.5722 6.94855 96.8111 7.18743C97.05 7.4263 97.1979 7.65374 97.3217 7.97236C97.4152 8.21291 97.5264 8.57438 97.5568 9.23997C97.5896 9.95981 97.5966 10.1757 97.5966 11.9985C97.5966 13.8213 97.5896 14.0372 97.5568 14.7571C97.5264 15.4227 97.4152 15.7841 97.3217 16.0247C97.1979 16.3433 97.05 16.5707 96.8111 16.8096C96.5722 17.0485 96.3448 17.1964 96.0261 17.3203C95.7856 17.4138 95.4241 17.525 94.7585 17.5553C94.0388 17.5882 93.8229 17.5951 92 17.5951C90.1771 17.5951 89.9612 17.5882 89.2414 17.5553C88.5758 17.525 88.2144 17.4138 87.9738 17.3203C87.6552 17.1964 87.4278 17.0485 87.1889 16.8096C86.95 16.5707 86.802 16.3433 86.6782 16.0247C86.5847 15.7841 86.4735 15.4227 86.4431 14.7571C86.4103 14.0372 86.4034 13.8213 86.4034 11.9985C86.4034 10.1757 86.4103 9.95981 86.4431 9.23997C86.4735 8.57438 86.5847 8.21291 86.6782 7.97236C86.802 7.65374 86.95 7.4263 87.1889 7.18743C87.4278 6.94855 87.6552 6.8006 87.9738 6.67676C88.2144 6.5833 88.5758 6.47208 89.2414 6.44171C89.9613 6.40886 90.1772 6.40193 92 6.40193Z" fill="#6D747A"/>
<path d="M92.0002 14.2806C90.7434 14.2806 89.7247 13.2618 89.7247 12.0051C89.7247 10.7483 90.7434 9.72954 92.0002 9.72954C93.257 9.72954 94.2757 10.7483 94.2757 12.0051C94.2757 13.2618 93.257 14.2806 92.0002 14.2806ZM92.0002 8.49951C90.0641 8.49951 88.4946 10.069 88.4946 12.0051C88.4946 13.9412 90.0641 15.5107 92.0002 15.5107C93.9363 15.5107 95.5058 13.9412 95.5058 12.0051C95.5058 10.069 93.9363 8.49951 92.0002 8.49951Z" fill="#6D747A"/>
<path d="M96.4631 8.35068C96.4631 8.80311 96.0963 9.16986 95.6439 9.16986C95.1915 9.16986 94.8247 8.80311 94.8247 8.35068C94.8247 7.89824 95.1915 7.53149 95.6439 7.53149C96.0963 7.53149 96.4631 7.89824 96.4631 8.35068Z" fill="#6D747A"/>
<circle cx="132" cy="12" r="12" fill="#EBEDF0"/>
<g clip-path="url(#clip0_1_1433)">
<path d="M132 4.01562C127.582 4.01562 124 7.59741 124 12.0156C124 15.4048 126.109 18.3022 129.085 19.4678C129.015 18.8348 128.951 17.8614 129.112 17.1703C129.258 16.546 130.05 13.1938 130.05 13.1938C130.05 13.1938 129.811 12.7147 129.811 12.0061C129.811 10.8937 130.456 10.0632 131.259 10.0632C131.941 10.0632 132.271 10.5757 132.271 11.1902C132.271 11.8766 131.834 12.9028 131.608 13.8538C131.42 14.6501 132.008 15.2994 132.793 15.2994C134.215 15.2994 135.308 13.8002 135.308 11.636C135.308 9.72059 133.931 8.38134 131.966 8.38134C129.69 8.38134 128.354 10.0887 128.354 11.8531C128.354 12.5407 128.619 13.2779 128.949 13.6787C129.015 13.7579 129.024 13.8274 129.005 13.9082C128.944 14.1609 128.809 14.7042 128.782 14.8154C128.748 14.9619 128.667 14.993 128.515 14.9224C127.516 14.4573 126.891 12.9966 126.891 11.8232C126.891 9.29966 128.725 6.98216 132.177 6.98216C134.952 6.98216 137.109 8.95962 137.109 11.6025C137.109 14.3596 135.371 16.5785 132.958 16.5785C132.147 16.5785 131.385 16.1573 131.124 15.6599C131.124 15.6599 130.723 17.1873 130.626 17.5617C130.445 18.2566 129.957 19.1276 129.631 19.6588C130.38 19.8906 131.175 20.0156 132 20.0156C136.418 20.0156 140 16.434 140 12.0156C140 7.59741 136.418 4.01562 132 4.01562Z" fill="#6D747A"/>
</g>
<circle cx="172" cy="12" r="12" fill="#EBEDF0"/>
<path d="M169.55 11.2773C169.548 11.7834 169.55 12.2895 169.553 12.7957C170.401 12.8233 171.252 12.8106 172.1 12.8233C171.726 14.7054 169.166 15.3158 167.811 14.0866C166.418 13.0084 166.484 10.6435 167.932 9.64187C168.944 8.83374 170.384 9.03363 171.396 9.73331C171.794 9.36541 172.166 8.97197 172.526 8.56365C171.683 7.89163 170.65 7.41313 169.55 7.46418C167.256 7.38761 165.146 9.3973 165.108 11.692C164.961 13.5677 166.195 15.4072 167.936 16.0708C169.672 16.7385 171.896 16.2834 173.004 14.7246C173.736 13.7399 173.893 12.4725 173.808 11.2815C172.387 11.2709 170.969 11.273 169.55 11.2773Z" fill="#6D747A"/>
<path d="M177.849 11.271C177.844 10.8478 177.842 10.4225 177.84 9.99927C177.417 9.99927 176.996 9.99927 176.575 9.99927C176.57 10.4225 176.566 10.8457 176.564 11.271C176.139 11.2731 175.716 11.2753 175.292 11.2795C175.292 11.7027 175.292 12.1238 175.292 12.5449C175.716 12.5492 176.141 12.5534 176.564 12.5576C176.568 12.9809 176.568 13.4041 176.573 13.8273C176.996 13.8273 177.417 13.8273 177.84 13.8273C177.842 13.4041 177.844 12.9809 177.849 12.5555C178.274 12.5513 178.697 12.5492 179.12 12.5449C179.12 12.1238 179.12 11.7006 179.12 11.2795C178.697 11.2753 178.272 11.2753 177.849 11.271Z" fill="#6D747A"/>
<circle cx="212" cy="12" r="12" fill="#EBEDF0"/>
<path d="M218.887 8.52748C218.722 7.90501 218.235 7.41473 217.616 7.24833C216.495 6.94605 212 6.94604 212 6.94604C212 6.94604 207.505 6.94605 206.384 7.24836C205.765 7.41476 205.278 7.90501 205.113 8.52751C204.813 9.6558 204.813 12.01 204.813 12.01C204.813 12.01 204.813 14.3641 205.113 15.4924C205.278 16.1149 205.765 16.5847 206.384 16.7512C207.505 17.0535 212 17.0535 212 17.0535C212 17.0535 216.495 17.0535 217.616 16.7511C218.235 16.5847 218.722 16.1149 218.887 15.4924C219.187 14.3641 219.187 12.0099 219.187 12.0099C219.187 12.0099 219.187 9.6558 218.887 8.52748Z" fill="#6D747A"/>
<path d="M210.53 14.1469V9.87207L214.287 12.0095L210.53 14.1469Z" fill="#EBEDF0"/>
<circle cx="252" cy="12" r="12" fill="#EBEDF0"/>
<path d="M259.147 7.07013L256.977 17.3004C256.814 18.0225 256.387 18.2021 255.78 17.8621L252.475 15.4264L250.88 16.9603C250.704 17.1368 250.556 17.2844 250.216 17.2844L250.453 13.9181L256.579 8.3826C256.846 8.14517 256.522 8.01357 256.165 8.25104L248.592 13.0196L245.332 11.9992C244.623 11.7777 244.61 11.2899 245.479 10.9498L258.232 6.03685C258.822 5.81545 259.339 6.16838 259.147 7.07013Z" fill="#6D747A"/>
<circle cx="292" cy="12" r="12" fill="#EBEDF0"/>
<path d="M297.333 6H286.667C285.2 6 284 7.2 284 8.66667V15.3333C284 16.8 285.2 18 286.667 18H297.333C298.8 18 300 16.8 300 15.3333V8.66667C300 7.2 298.8 6 297.333 6ZM298.4 9.86667L293.133 13.4C292.8 13.6 292.4 13.7333 292 13.7333C291.6 13.7333 291.2 13.6 290.867 13.4L285.6 9.86667C285.333 9.66667 285.267 9.26667 285.467 8.93333C285.667 8.66667 286.067 8.6 286.4 8.8L291.667 12.3333C291.867 12.4667 292.2 12.4667 292.4 12.3333L297.667 8.8C298 8.6 298.4 8.66667 298.6 9C298.733 9.26667 298.667 9.66667 298.4 9.86667Z" fill="#6D747A"/>
<defs>
<clipPath id="clip0_1_1433">
<rect width="16" height="16" fill="white" transform="translate(124 4)"/>
</clipPath>
</defs>
</svg>
