<svg width="559" height="38" viewBox="0 0 559 38" fill="none" xmlns="http://www.w3.org/2000/svg">
<path d="M20.796 2.98L9.708 18.928L8.088 28H3.984L5.604 18.928L0.0960001 2.98H4.668L8.268 15.184L16.188 2.98H20.796ZM28.3009 28.324C26.6209 28.324 25.1449 27.976 23.8729 27.28C22.6009 26.584 21.6049 25.6 20.8849 24.328C20.1889 23.056 19.8409 21.604 19.8409 19.972C19.8409 17.74 20.3569 15.7 21.3889 13.852C22.4449 12.004 23.8849 10.54 25.7089 9.46C27.5569 8.38 29.6089 7.84 31.8649 7.84C33.5449 7.84 35.0329 8.2 36.3289 8.92C37.6249 9.616 38.6329 10.6 39.3529 11.872C40.0969 13.12 40.4689 14.572 40.4689 16.228C40.4689 18.46 39.9289 20.5 38.8489 22.348C37.7689 24.196 36.3049 25.66 34.4569 26.74C32.6089 27.796 30.5569 28.324 28.3009 28.324ZM28.8049 24.868C30.1729 24.868 31.4209 24.484 32.5489 23.716C33.7009 22.924 34.6009 21.892 35.2489 20.62C35.8969 19.324 36.2209 17.944 36.2209 16.48C36.2209 14.824 35.7529 13.552 34.8169 12.664C33.8809 11.752 32.7049 11.296 31.2889 11.296C29.8969 11.296 28.6489 11.692 27.5449 12.484C26.4649 13.252 25.6129 14.296 24.9889 15.616C24.3889 16.912 24.0889 18.304 24.0889 19.792C24.0889 21.4 24.5209 22.648 25.3849 23.536C26.2729 24.424 27.4129 24.868 28.8049 24.868ZM64.0379 8.164L60.5459 28H56.4419L56.8379 25.66C56.0459 26.476 55.0859 27.124 53.9579 27.604C52.8539 28.06 51.7139 28.288 50.5379 28.288C48.4499 28.288 46.7819 27.724 45.5339 26.596C44.2859 25.468 43.6619 23.872 43.6619 21.808C43.6619 21.256 43.7219 20.596 43.8419 19.828L45.8939 8.164H49.9619L48.0179 19.216C47.9219 19.888 47.8739 20.368 47.8739 20.656C47.8739 21.976 48.2339 22.984 48.9539 23.68C49.6979 24.376 50.7179 24.724 52.0139 24.724C53.5259 24.724 54.8099 24.28 55.8659 23.392C56.9219 22.48 57.6179 21.172 57.9539 19.468L59.9339 8.164H64.0379ZM72.9448 11.656C73.7608 10.456 74.7208 9.52 75.8248 8.848C76.9528 8.176 78.2008 7.84 79.5688 7.84L78.8128 12.088H77.7688C76.1848 12.088 74.9128 12.484 73.9528 13.276C72.9928 14.068 72.3208 15.436 71.9368 17.38L70.0648 28H65.9608L69.4528 8.164H73.5568L72.9448 11.656ZM214.024 23.068L207.94 33.004H205.276L209.56 23.068H214.024ZM250.507 2.98L239.419 18.928L237.799 28H233.695L235.315 18.928L229.807 2.98H234.379L237.979 15.184L245.899 2.98H250.507ZM258.012 28.324C256.332 28.324 254.856 27.976 253.584 27.28C252.312 26.584 251.316 25.6 250.596 24.328C249.9 23.056 249.552 21.604 249.552 19.972C249.552 17.74 250.068 15.7 251.1 13.852C252.156 12.004 253.596 10.54 255.42 9.46C257.268 8.38 259.32 7.84 261.576 7.84C263.256 7.84 264.744 8.2 266.04 8.92C267.336 9.616 268.344 10.6 269.064 11.872C269.808 13.12 270.18 14.572 270.18 16.228C270.18 18.46 269.64 20.5 268.56 22.348C267.48 24.196 266.016 25.66 264.168 26.74C262.32 27.796 260.268 28.324 258.012 28.324ZM258.516 24.868C259.884 24.868 261.132 24.484 262.26 23.716C263.412 22.924 264.312 21.892 264.96 20.62C265.608 19.324 265.932 17.944 265.932 16.48C265.932 14.824 265.464 13.552 264.528 12.664C263.592 11.752 262.416 11.296 261 11.296C259.608 11.296 258.36 11.692 257.256 12.484C256.176 13.252 255.324 14.296 254.7 15.616C254.1 16.912 253.8 18.304 253.8 19.792C253.8 21.4 254.232 22.648 255.096 23.536C255.984 24.424 257.124 24.868 258.516 24.868ZM293.749 8.164L290.257 28H286.153L286.549 25.66C285.757 26.476 284.797 27.124 283.669 27.604C282.565 28.06 281.425 28.288 280.249 28.288C278.161 28.288 276.493 27.724 275.245 26.596C273.997 25.468 273.373 23.872 273.373 21.808C273.373 21.256 273.433 20.596 273.553 19.828L275.605 8.164H279.673L277.729 19.216C277.633 19.888 277.585 20.368 277.585 20.656C277.585 21.976 277.945 22.984 278.665 23.68C279.409 24.376 280.429 24.724 281.725 24.724C283.237 24.724 284.521 24.28 285.577 23.392C286.633 22.48 287.329 21.172 287.665 19.468L289.645 8.164H293.749ZM302.656 11.656C303.472 10.456 304.432 9.52 305.536 8.848C306.664 8.176 307.912 7.84 309.28 7.84L308.524 12.088H307.48C305.896 12.088 304.624 12.484 303.664 13.276C302.704 14.068 302.032 15.436 301.648 17.38L299.776 28H295.672L299.164 8.164H303.268L302.656 11.656Z" fill="black"/>
<path d="M114.978 2.98L110.55 28H106.446L108.39 16.948H96.6182L94.6742 28H90.5702L94.9982 2.98H99.1022L97.1942 13.78H108.966L110.874 2.98H114.978ZM124.629 28.324C122.949 28.324 121.473 27.976 120.201 27.28C118.929 26.584 117.933 25.6 117.213 24.328C116.517 23.056 116.169 21.604 116.169 19.972C116.169 17.74 116.685 15.7 117.717 13.852C118.773 12.004 120.213 10.54 122.037 9.46C123.885 8.38 125.937 7.84 128.193 7.84C129.873 7.84 131.361 8.2 132.657 8.92C133.953 9.616 134.961 10.6 135.681 11.872C136.425 13.12 136.797 14.572 136.797 16.228C136.797 18.46 136.257 20.5 135.177 22.348C134.097 24.196 132.633 25.66 130.785 26.74C128.937 27.796 126.885 28.324 124.629 28.324ZM125.133 24.868C126.501 24.868 127.749 24.484 128.877 23.716C130.029 22.924 130.929 21.892 131.577 20.62C132.225 19.324 132.549 17.944 132.549 16.48C132.549 14.824 132.081 13.552 131.145 12.664C130.209 11.752 129.033 11.296 127.617 11.296C126.225 11.296 124.977 11.692 123.873 12.484C122.793 13.252 121.941 14.296 121.317 15.616C120.717 16.912 120.417 18.304 120.417 19.792C120.417 21.4 120.849 22.648 121.713 23.536C122.601 24.424 123.741 24.868 125.133 24.868ZM146.002 11.116C146.866 10.156 147.958 9.376 149.278 8.776C150.598 8.152 152.002 7.84 153.49 7.84C155.026 7.84 156.37 8.164 157.522 8.812C158.698 9.46 159.61 10.384 160.258 11.584C160.906 12.76 161.23 14.152 161.23 15.76C161.23 16.456 161.158 17.2 161.014 17.992C160.654 19.984 159.922 21.772 158.818 23.356C157.738 24.916 156.406 26.14 154.822 27.028C153.262 27.892 151.618 28.324 149.89 28.324C148.354 28.324 147.046 28.024 145.966 27.424C144.886 26.824 144.07 26.056 143.518 25.12L143.014 28H138.91L143.626 1.36H147.73L146.002 11.116ZM156.838 17.992C156.934 17.536 156.982 17.044 156.982 16.516C156.982 14.908 156.502 13.66 155.542 12.772C154.606 11.86 153.418 11.404 151.978 11.404C150.946 11.404 149.914 11.668 148.882 12.196C147.874 12.724 146.998 13.492 146.254 14.5C145.51 15.508 145.018 16.696 144.778 18.064C144.682 18.52 144.634 19.012 144.634 19.54C144.634 21.148 145.102 22.42 146.038 23.356C146.998 24.292 148.186 24.76 149.602 24.76C150.658 24.76 151.69 24.496 152.698 23.968C153.73 23.416 154.618 22.624 155.362 21.592C156.106 20.56 156.598 19.36 156.838 17.992ZM170.4 11.116C171.264 10.156 172.356 9.376 173.676 8.776C174.996 8.152 176.4 7.84 177.888 7.84C179.424 7.84 180.768 8.164 181.92 8.812C183.096 9.46 184.008 10.384 184.656 11.584C185.304 12.76 185.628 14.152 185.628 15.76C185.628 16.456 185.556 17.2 185.412 17.992C185.052 19.984 184.32 21.772 183.216 23.356C182.136 24.916 180.804 26.14 179.22 27.028C177.66 27.892 176.016 28.324 174.288 28.324C172.752 28.324 171.444 28.024 170.364 27.424C169.284 26.824 168.468 26.056 167.916 25.12L167.412 28H163.308L168.024 1.36H172.128L170.4 11.116ZM181.236 17.992C181.332 17.536 181.38 17.044 181.38 16.516C181.38 14.908 180.9 13.66 179.94 12.772C179.004 11.86 177.816 11.404 176.376 11.404C175.344 11.404 174.312 11.668 173.28 12.196C172.272 12.724 171.396 13.492 170.652 14.5C169.908 15.508 169.416 16.696 169.176 18.064C169.08 18.52 169.032 19.012 169.032 19.54C169.032 21.148 169.5 22.42 170.436 23.356C171.396 24.292 172.584 24.76 174 24.76C175.056 24.76 176.088 24.496 177.096 23.968C178.128 23.416 179.016 22.624 179.76 21.592C180.504 20.56 180.996 19.36 181.236 17.992ZM193.431 8.164L196.347 23.284L204.807 8.164H209.055L191.775 37.324H187.527L193.251 27.676L188.859 8.164H193.431Z" fill="#8064A2"/>
<path d="M321.145 15.436C321.577 12.988 322.525 10.792 323.989 8.848C325.477 6.904 327.289 5.392 329.425 4.312C331.585 3.208 333.829 2.656 336.157 2.656C338.821 2.656 341.077 3.316 342.925 4.636C344.797 5.932 345.985 7.78 346.489 10.18H341.557C341.101 8.932 340.357 7.996 339.325 7.372C338.293 6.724 337.021 6.4 335.509 6.4C333.853 6.4 332.305 6.772 330.865 7.516C329.449 8.26 328.249 9.316 327.265 10.684C326.305 12.052 325.669 13.636 325.357 15.436C325.237 16.228 325.177 16.9 325.177 17.452C325.177 19.612 325.825 21.328 327.121 22.6C328.417 23.872 330.145 24.508 332.305 24.508C333.817 24.508 335.209 24.196 336.481 23.572C337.753 22.924 338.821 21.976 339.685 20.728H344.617C343.249 23.128 341.413 24.976 339.109 26.272C336.805 27.568 334.321 28.216 331.657 28.216C329.593 28.216 327.745 27.784 326.113 26.92C324.481 26.056 323.209 24.844 322.297 23.284C321.385 21.724 320.929 19.924 320.929 17.884C320.929 17.116 321.001 16.3 321.145 15.436ZM356.801 28.324C355.121 28.324 353.645 27.976 352.373 27.28C351.101 26.584 350.105 25.6 349.385 24.328C348.689 23.056 348.341 21.604 348.341 19.972C348.341 17.74 348.857 15.7 349.889 13.852C350.945 12.004 352.385 10.54 354.209 9.46C356.057 8.38 358.109 7.84 360.365 7.84C362.045 7.84 363.533 8.2 364.829 8.92C366.125 9.616 367.133 10.6 367.853 11.872C368.597 13.12 368.969 14.572 368.969 16.228C368.969 18.46 368.429 20.5 367.349 22.348C366.269 24.196 364.805 25.66 362.957 26.74C361.109 27.796 359.057 28.324 356.801 28.324ZM357.305 24.868C358.673 24.868 359.921 24.484 361.049 23.716C362.201 22.924 363.101 21.892 363.749 20.62C364.397 19.324 364.721 17.944 364.721 16.48C364.721 14.824 364.253 13.552 363.317 12.664C362.381 11.752 361.205 11.296 359.789 11.296C358.397 11.296 357.149 11.692 356.045 12.484C354.965 13.252 354.113 14.296 353.489 15.616C352.889 16.912 352.589 18.304 352.589 19.792C352.589 21.4 353.021 22.648 353.885 23.536C354.773 24.424 355.913 24.868 357.305 24.868ZM398.658 7.84C400.746 7.84 402.414 8.404 403.662 9.532C404.91 10.66 405.534 12.256 405.534 14.32C405.534 14.872 405.474 15.532 405.354 16.3L403.266 28H399.198L401.178 16.912C401.274 16.24 401.322 15.76 401.322 15.472C401.322 14.152 400.95 13.144 400.206 12.448C399.486 11.752 398.478 11.404 397.182 11.404C395.622 11.404 394.302 11.884 393.222 12.844C392.166 13.78 391.494 15.136 391.206 16.912L389.226 28H385.158L387.138 16.912C387.234 16.24 387.282 15.76 387.282 15.472C387.282 14.152 386.91 13.144 386.166 12.448C385.446 11.752 384.438 11.404 383.142 11.404C381.582 11.404 380.262 11.884 379.182 12.844C378.126 13.78 377.454 15.136 377.166 16.912V16.804L375.186 28H371.082L374.574 8.164H378.678L378.282 10.468C379.074 9.652 380.022 9.016 381.126 8.56C382.254 8.08 383.418 7.84 384.618 7.84C386.202 7.84 387.558 8.176 388.686 8.848C389.838 9.52 390.642 10.492 391.098 11.764C391.89 10.564 392.982 9.616 394.374 8.92C395.766 8.2 397.194 7.84 398.658 7.84ZM436.064 7.84C438.152 7.84 439.82 8.404 441.068 9.532C442.316 10.66 442.94 12.256 442.94 14.32C442.94 14.872 442.88 15.532 442.76 16.3L440.672 28H436.604L438.584 16.912C438.68 16.24 438.728 15.76 438.728 15.472C438.728 14.152 438.356 13.144 437.612 12.448C436.892 11.752 435.884 11.404 434.588 11.404C433.028 11.404 431.708 11.884 430.628 12.844C429.572 13.78 428.9 15.136 428.612 16.912L426.632 28H422.564L424.544 16.912C424.64 16.24 424.688 15.76 424.688 15.472C424.688 14.152 424.316 13.144 423.572 12.448C422.852 11.752 421.844 11.404 420.548 11.404C418.988 11.404 417.668 11.884 416.588 12.844C415.532 13.78 414.86 15.136 414.572 16.912V16.804L412.592 28H408.488L411.98 8.164H416.084L415.688 10.468C416.48 9.652 417.428 9.016 418.532 8.56C419.66 8.08 420.824 7.84 422.024 7.84C423.608 7.84 424.964 8.176 426.092 8.848C427.244 9.52 428.048 10.492 428.504 11.764C429.296 10.564 430.388 9.616 431.78 8.92C433.172 8.2 434.6 7.84 436.064 7.84ZM467.35 8.164L463.858 28H459.754L460.15 25.66C459.358 26.476 458.398 27.124 457.27 27.604C456.166 28.06 455.026 28.288 453.85 28.288C451.762 28.288 450.094 27.724 448.846 26.596C447.598 25.468 446.974 23.872 446.974 21.808C446.974 21.256 447.034 20.596 447.154 19.828L449.206 8.164H453.274L451.33 19.216C451.234 19.888 451.186 20.368 451.186 20.656C451.186 21.976 451.546 22.984 452.266 23.68C453.01 24.376 454.03 24.724 455.326 24.724C456.838 24.724 458.122 24.28 459.178 23.392C460.234 22.48 460.93 21.172 461.266 19.468L463.246 8.164H467.35ZM482.845 7.84C484.933 7.84 486.589 8.404 487.813 9.532C489.061 10.636 489.685 12.232 489.685 14.32C489.685 14.848 489.625 15.508 489.505 16.3L487.417 28H483.349L485.329 16.912C485.425 16.24 485.473 15.76 485.473 15.472C485.473 14.152 485.101 13.144 484.357 12.448C483.637 11.752 482.629 11.404 481.333 11.404C479.773 11.404 478.453 11.884 477.373 12.844C476.317 13.78 475.645 15.136 475.357 16.912V16.804L473.377 28H469.273L472.765 8.164H476.869L476.473 10.468C477.289 9.652 478.249 9.016 479.353 8.56C480.481 8.08 481.645 7.84 482.845 7.84ZM498.7 5.536C498.052 5.536 497.524 5.332 497.116 4.924C496.708 4.516 496.504 4 496.504 3.376C496.504 2.536 496.816 1.816 497.44 1.216C498.088 0.591999 498.82 0.279999 499.636 0.279999C500.284 0.279999 500.8 0.483999 501.184 0.891999C501.592 1.3 501.796 1.816 501.796 2.44C501.796 3.28 501.484 4.012 500.86 4.636C500.236 5.236 499.516 5.536 498.7 5.536ZM500.248 8.164L496.756 28H492.652L496.144 8.164H500.248ZM507.904 22.492C507.856 22.828 507.832 23.044 507.832 23.14C507.832 23.644 507.988 24.016 508.3 24.256C508.612 24.472 509.128 24.58 509.848 24.58H512.368L511.756 28H508.516C506.932 28 505.72 27.688 504.88 27.064C504.04 26.416 503.62 25.396 503.62 24.004C503.62 23.476 503.668 22.972 503.764 22.492L505.708 11.512H503.368L503.944 8.164H506.32L507.184 3.232H511.324L510.46 8.164H515.248L514.672 11.512H509.848L507.904 22.492ZM521.263 8.164L524.179 23.284L532.639 8.164H536.887L519.607 37.324H515.359L521.083 27.676L516.691 8.164H521.263ZM538.112 28.252C537.464 28.252 536.936 28.048 536.528 27.64C536.12 27.232 535.916 26.716 535.916 26.092C535.916 25.252 536.228 24.532 536.852 23.932C537.5 23.308 538.232 22.996 539.048 22.996C539.696 22.996 540.212 23.2 540.596 23.608C541.004 24.016 541.208 24.532 541.208 25.156C541.208 25.996 540.896 26.728 540.272 27.352C539.648 27.952 538.928 28.252 538.112 28.252ZM546.796 28.252C546.148 28.252 545.62 28.048 545.212 27.64C544.804 27.232 544.6 26.716 544.6 26.092C544.6 25.252 544.912 24.532 545.536 23.932C546.184 23.308 546.916 22.996 547.732 22.996C548.38 22.996 548.896 23.2 549.28 23.608C549.688 24.016 549.892 24.532 549.892 25.156C549.892 25.996 549.58 26.728 548.956 27.352C548.332 27.952 547.612 28.252 546.796 28.252ZM555.479 28.252C554.831 28.252 554.303 28.048 553.895 27.64C553.487 27.232 553.283 26.716 553.283 26.092C553.283 25.252 553.595 24.532 554.219 23.932C554.867 23.308 555.599 22.996 556.415 22.996C557.063 22.996 557.579 23.2 557.963 23.608C558.371 24.016 558.575 24.532 558.575 25.156C558.575 25.996 558.263 26.728 557.639 27.352C557.015 27.952 556.295 28.252 555.479 28.252Z" fill="#0096C8"/>
</svg>
